<svg xmlns="http://www.w3.org/2000/svg" viewBox="0 0 1200 630">
  <defs>
    <linearGradient id="bg" x1="0" y1="0" x2="1" y2="1">
      <stop offset="0" stop-color="#1c1f26"/>
      <stop offset="1" stop-color="#16181d"/>
    </linearGradient>
    <radialGradient id="glow" cx="0.85" cy="0" r="0.7">
      <stop offset="0" stop-color="#96733d" stop-opacity="0.5"/>
      <stop offset="1" stop-color="#96733d" stop-opacity="0"/>
    </radialGradient>
  </defs>
  <rect width="1200" height="630" fill="url(#bg)"/>
  <rect width="1200" height="630" fill="url(#glow)"/>
  <g transform="translate(96 92) scale(1.8)" stroke-linecap="round" stroke-linejoin="round">
    <circle cx="20" cy="8.5" r="1.6" fill="#b18a4b"/>
    <g fill="none" stroke="#b18a4b" stroke-width="1.6">
      <path d="M20 9.5 V26"/>
      <path d="M10.5 13.5 H29.5"/>
      <path d="M10.5 13.5 L7 18.5 M10.5 13.5 L14 18.5 M7 18.5 Q10.5 22.1 14 18.5"/>
      <path d="M29.5 13.5 L26 18.5 M29.5 13.5 L33 18.5 M26 18.5 Q29.5 22.1 33 18.5"/>
      <path d="M20 26 L15.5 29 M20 26 L24.5 29"/>
      <path d="M13.5 29 H26.5"/>
    </g>
  </g>
  <text x="96" y="330" fill="#f5f1e8" font-family="Georgia, serif" font-size="76" font-weight="500">Avendaño &amp; Asociados</text>
  <text x="98" y="392" fill="#b18a4b" font-family="Arial, sans-serif" font-size="27" letter-spacing="4">LITIGANTES · CIUDAD DE MÉXICO · DESDE 2009</text>
  <text x="96" y="486" fill="#c9c3b4" font-family="Georgia, serif" font-size="34">Penal · Amparo · Familiar · Mercantil · Civil · Laboral</text>
</svg>
